<svg width="78" height="50" viewBox="0 0 78 50" fill="none" xmlns="http://www.w3.org/2000/svg" class="h-full aspect-[90/58]"><path d="M15.8231 18.4459L10.9469 0.00262451H7.50291L15.8231 31.4722V43.4821L4.32877 0.00262451H0.884766L14.1011 49.9952H15.8231H17.5441H19.2661V0.00262451H15.8231V18.4459Z" fill="currentColor"></path><path d="M77.1187 49.9952L63.9023 0.00262451H62.1803H60.4583H58.7363V49.9942H62.1803L71.2702 40.9001L73.6747 49.9942H77.1187V49.9952ZM68.2147 29.3386L62.1814 35.3719V6.51578L68.2147 29.3386ZM62.1803 45.1211V40.2418L69.2321 33.19L70.2527 37.0487L62.1803 45.1211Z" fill="currentColor"></path><path d="M26.5231 0.00262451H24.8011H23.0791V49.9942H26.5231L35.613 40.9001L38.0175 49.9942H41.4615L28.2441 0.00262451H26.5231ZM32.5564 29.3386L26.5231 35.3719V6.51577L32.5564 29.3386ZM26.5231 45.1211V40.2418L33.5749 33.19L34.5955 37.0487L26.5231 45.1211Z" fill="currentColor"></path><path d="M55.7576 30.8915L47.5918 0.00263977H45.8698H44.1478H42.4258V49.9942H45.8698V40.7237L49.0334 37.5601L52.321 49.9942L55.7576 49.969L51.7571 34.8364L53.0224 33.5711L55.7576 30.8915ZM45.8698 35.8538V6.51579L52.0039 29.7197L45.8698 35.8538Z" fill="currentColor"></path></svg>
